<?xml version="1.0" encoding="us-ascii" standalone="no"?><svg xmlns="http://www.w3.org/2000/svg" xmlns:xlink="http://www.w3.org/1999/xlink" contentStyleType="text/css" height="543px" preserveAspectRatio="none" style="width:542px;height:543px;background:#FFFFFF;" version="1.1" viewBox="0 0 542 543" width="542px" zoomAndPan="magnify"><defs/><g><!--entity tuple<int,double,std::string>--><g id="elem_tuple&lt;int,double,std::string&gt;"><rect fill="#F1F1F1" height="49.1201" rx="2.5" ry="2.5" style="stroke:#181818;stroke-width:0.5;" width="215" x="97" y="7"/><rect fill="#F1F1F1" height="10" style="stroke:#181818;stroke-width:0.5;" width="15" x="292" y="12"/><rect fill="#F1F1F1" height="2" style="stroke:#181818;stroke-width:0.5;" width="4" x="290" y="14"/><rect fill="#F1F1F1" height="2" style="stroke:#181818;stroke-width:0.5;" width="4" x="290" y="18"/><text fill="#000000" font-family="sans-serif" font-size="14" lengthAdjust="spacing" textLength="175" x="112" y="43.0439">tuple&lt;int,double,std::string&gt;</text></g><!--entity _Tuple_impl<0,int,double,std::string>--><g id="elem__Tuple_impl&lt;0,int,double,std::string&gt;"><ellipse cx="204.5" cy="148" fill="#F1F1F1" rx="8" ry="8" style="stroke:#181818;stroke-width:0.5;"/><text fill="#000000" font-family="sans-serif" font-size="14" lengthAdjust="spacing" textLength="233" x="88" y="181.0439">_Tuple_impl&lt;0,int,double,std::string&gt;</text></g><!--entity _Head_base<0,int>--><g id="elem__Head_base&lt;0,int&gt;"><rect fill="#F1F1F1" height="49.1201" rx="2.5" ry="2.5" style="stroke:#181818;stroke-width:0.5;" width="163" x="7" y="247.5"/><rect fill="#F1F1F1" height="10" style="stroke:#181818;stroke-width:0.5;" width="15" x="150" y="252.5"/><rect fill="#F1F1F1" height="2" style="stroke:#181818;stroke-width:0.5;" width="4" x="148" y="254.5"/><rect fill="#F1F1F1" height="2" style="stroke:#181818;stroke-width:0.5;" width="4" x="148" y="258.5"/><text fill="#000000" font-family="sans-serif" font-size="14" lengthAdjust="spacing" textLength="123" x="22" y="283.5439">_Head_base&lt;0,int&gt;</text></g><!--entity _Tuple_impl<1,double,std::string>--><g id="elem__Tuple_impl&lt;1,double,std::string&gt;"><ellipse cx="320.5" cy="272" fill="#F1F1F1" rx="8" ry="8" style="stroke:#181818;stroke-width:0.5;"/><text fill="#000000" font-family="sans-serif" font-size="14" lengthAdjust="spacing" textLength="214" x="213.5" y="305.0439">_Tuple_impl&lt;1,double,std::string&gt;</text></g><!--entity _Head_base<1,double>--><g id="elem__Head_base&lt;1,double&gt;"><rect fill="#F1F1F1" height="49.1201" rx="2.5" ry="2.5" style="stroke:#181818;stroke-width:0.5;" width="191" x="114" y="371.5"/><rect fill="#F1F1F1" height="10" style="stroke:#181818;stroke-width:0.5;" width="15" x="285" y="376.5"/><rect fill="#F1F1F1" height="2" style="stroke:#181818;stroke-width:0.5;" width="4" x="283" y="378.5"/><rect fill="#F1F1F1" height="2" style="stroke:#181818;stroke-width:0.5;" width="4" x="283" y="382.5"/><text fill="#000000" font-family="sans-serif" font-size="14" lengthAdjust="spacing" textLength="151" x="129" y="407.5439">_Head_base&lt;1,double&gt;</text></g><!--entity _Tuple_impl<2,std::string>--><g id="elem__Tuple_impl&lt;2,std::string&gt;"><ellipse cx="431.5" cy="396" fill="#F1F1F1" rx="8" ry="8" style="stroke:#181818;stroke-width:0.5;"/><text fill="#000000" font-family="sans-serif" font-size="14" lengthAdjust="spacing" textLength="167" x="348" y="429.0439">_Tuple_impl&lt;2,std::string&gt;</text></g><!--entity _Head_base<2,std::string>--><g id="elem__Head_base&lt;2,std::string&gt;"><rect fill="#F1F1F1" height="49.1201" rx="2.5" ry="2.5" style="stroke:#181818;stroke-width:0.5;" width="210" x="326.5" y="488"/><rect fill="#F1F1F1" height="10" style="stroke:#181818;stroke-width:0.5;" width="15" x="516.5" y="493"/><rect fill="#F1F1F1" height="2" style="stroke:#181818;stroke-width:0.5;" width="4" x="514.5" y="495"/><rect fill="#F1F1F1" height="2" style="stroke:#181818;stroke-width:0.5;" width="4" x="514.5" y="499"/><text fill="#000000" font-family="sans-serif" font-size="14" lengthAdjust="spacing" textLength="170" x="341.5" y="524.0439">_Head_base&lt;2,std::string&gt;</text></g><!--link _Tuple_impl<0,int,double,std::string> to _Head_base<0,int>--><g id="link__Tuple_impl&lt;0,int,double,std::string&gt;__Head_base&lt;0,int&gt;"><path d="M196.89,157 C180.49,174.25 141.16,215.62 114.66,243.48 " fill="none" id="_Tuple_impl&lt;0,int,double,std::string&gt;-to-_Head_base&lt;0,int&gt;" style="stroke:#181818;stroke-width:1.0;"/><polygon fill="#181818" points="111.18,247.15,120.2764,243.3744,114.6215,243.5229,114.473,237.868,111.18,247.15" style="stroke:#181818;stroke-width:1.0;"/></g><!--link _Tuple_impl<0,int,double,std::string> to _Tuple_impl<1,double,std::string>--><g id="link__Tuple_impl&lt;0,int,double,std::string&gt;__Tuple_impl&lt;1,double,std::string&gt;"><path d="M212.11,157 C232.01,177.94 285.69,234.39 309.2,259.12 " fill="none" id="_Tuple_impl&lt;0,int,double,std::string&gt;-to-_Tuple_impl&lt;1,double,std::string&gt;" style="stroke:#181818;stroke-width:1.0;"/><polygon fill="#181818" points="312.71,262.81,309.3987,253.5345,309.2614,259.1897,303.6062,259.0523,312.71,262.81" style="stroke:#181818;stroke-width:1.0;"/></g><!--link _Tuple_impl<1,double,std::string> to _Head_base<1,double>--><g id="link__Tuple_impl&lt;1,double,std::string&gt;__Head_base&lt;1,double&gt;"><path d="M313.22,281 C297.59,298.18 260.19,339.28 234.85,367.14 " fill="none" id="_Tuple_impl&lt;1,double,std::string&gt;-to-_Head_base&lt;1,double&gt;" style="stroke:#181818;stroke-width:1.0;"/><polygon fill="#181818" points="231.2,371.15,240.21,367.1726,234.5598,367.4471,234.2853,361.7969,231.2,371.15" style="stroke:#181818;stroke-width:1.0;"/></g><!--link _Tuple_impl<1,double,std::string> to _Tuple_impl<2,std::string>--><g id="link__Tuple_impl&lt;1,double,std::string&gt;__Tuple_impl&lt;2,std::string&gt;"><path d="M327.78,281 C346.75,301.85 397.77,357.92 420.41,382.81 " fill="none" id="_Tuple_impl&lt;1,double,std::string&gt;-to-_Tuple_impl&lt;2,std::string&gt;" style="stroke:#181818;stroke-width:1.0;"/><polygon fill="#181818" points="424.04,386.81,420.9169,377.4694,420.6653,383.1207,415.014,382.869,424.04,386.81" style="stroke:#181818;stroke-width:1.0;"/></g><!--link _Tuple_impl<2,std::string> to _Head_base<2,std::string>--><g id="link__Tuple_impl&lt;2,std::string&gt;__Head_base&lt;2,std::string&gt;"><path d="M431.5,405.23 C431.5,421.13 431.5,456.72 431.5,482.34 " fill="none" id="_Tuple_impl&lt;2,std::string&gt;-to-_Head_base&lt;2,std::string&gt;" style="stroke:#181818;stroke-width:1.0;"/><polygon fill="#181818" points="431.5,487.65,435.5,478.65,431.5,482.65,427.5,478.65,431.5,487.65" style="stroke:#181818;stroke-width:1.0;"/></g><!--link tuple<int,double,std::string> to _Tuple_impl<0,int,double,std::string>--><g id="link_tuple&lt;int,double,std::string&gt;__Tuple_impl&lt;0,int,double,std::string&gt;"><path d="M204.5,56.22 C204.5,79.61 204.5,114.53 204.5,133.52 " fill="none" id="tuple&lt;int,double,std::string&gt;-to-_Tuple_impl&lt;0,int,double,std::string&gt;" style="stroke:#181818;stroke-width:1.0;"/><polygon fill="#181818" points="204.5,138.87,208.5,129.87,204.5,133.87,200.5,129.87,204.5,138.87" style="stroke:#181818;stroke-width:1.0;"/></g><!--SRC=[IyxFBSZFIyqhKL0gAIt8IRN9p2lHISalJSf9rIakIR6oAYufoinBjrFYqj1KK8eF0Qc9pymjoB4nqC6bL86BAnbXRBn7Qc9AV59YSIf42rYUM9DqTUrmc83k74FihYRD8eBcuVGQJ3cwbOR4-GkX7OlNZF3voP18_nWHwH6ybXaHy0Qc9GHI5QOxySGH0000]--></g></svg>